<svg width="96" height="20" viewBox="0 0 96 20" fill="none" xmlns="http://www.w3.org/2000/svg">
<path d="M5.464 13.575L7.71783 16.677L1.78906 14.263C1.78906 14.263 8.9984 1.41923 9.82803 0L17.9305 14.263L9.82803 20L9.98696 13.575H5.464Z" fill="white"/>
<path d="M9.92188 11.0628L13.936 7.20312L11.1092 11.0628L13.936 13.5602V17.0896L12.8053 13.5602L9.92188 11.0628Z" fill="black"/>
<path d="M9.84704 0.0351562L9.98909 5.3029V6.47579V8.88331L9.98888 13.5749H9.36719L9.84704 0.0351562Z" fill="black"/>
<path d="M20.5391 13.2286L22.9815 5.03658H23.8107L21.4764 13.2286H20.5391ZM25.5591 13.2286L23.2249 5.03658H24.0991L26.5506 13.2286H25.5591ZM21.7738 9.96315H25.2527V10.9644H21.7738V9.96315ZM29.9524 13.331C29.5198 13.331 29.1592 13.202 28.8709 12.9441C28.5825 12.6787 28.3932 12.3108 28.303 11.8405L28.3932 11.8177V13.2286H27.5009V5.03658H28.4382V8.75713L28.3391 8.72299C28.4412 8.28304 28.6395 7.9379 28.9339 7.6876C29.2344 7.43729 29.5948 7.31213 30.0155 7.31213C30.4301 7.31213 30.7875 7.43729 31.088 7.6876C31.3944 7.9379 31.6287 8.28682 31.791 8.73435C31.9592 9.1819 32.0433 9.70527 32.0433 10.3045C32.0433 10.9113 31.9562 11.4423 31.782 11.8974C31.6077 12.3525 31.3643 12.7052 31.0519 12.9555C30.7395 13.2058 30.373 13.331 29.9524 13.331ZM29.7541 12.3525C30.1627 12.3525 30.4871 12.1705 30.7275 11.8063C30.9678 11.4423 31.088 10.9417 31.088 10.3045C31.088 9.6749 30.9678 9.18568 30.7275 8.83677C30.4871 8.48024 30.1597 8.30201 29.7451 8.30201C29.3365 8.30201 29.009 8.48404 28.7627 8.84813C28.5223 9.20465 28.4022 9.70146 28.4022 10.3386C28.4022 10.9606 28.5223 11.4537 28.7627 11.8177C29.009 12.1743 29.3395 12.3525 29.7541 12.3525ZM33.0283 13.2286V5.03658H33.9656V13.2286H33.0283ZM36.2908 13.2286V9.49668C36.2908 9.09465 36.2097 8.79504 36.0475 8.59782C35.8913 8.4006 35.6569 8.30201 35.3445 8.30201C35.0741 8.30201 34.8338 8.37785 34.6235 8.52957C34.4192 8.68127 34.257 8.88985 34.1368 9.15535C34.0226 9.42082 33.9656 9.7356 33.9656 10.0997L33.8484 8.7116C33.9986 8.27924 34.2299 7.9379 34.5424 7.6876C34.8548 7.43729 35.2184 7.31213 35.6329 7.31213C36.1256 7.31213 36.5131 7.4866 36.7956 7.83551C37.0779 8.18443 37.2191 8.64715 37.2191 9.2236V13.2286H36.2908ZM38.4764 13.2286V7.4259H39.4135V13.2286H38.4764ZM38.4313 6.28813V4.95694H39.4677V6.28813H38.4313ZM42.3789 13.3424C41.7782 13.3424 41.3005 13.1755 40.9459 12.8417C40.5913 12.508 40.3904 12.0377 40.3423 11.4309H41.2076C41.2496 11.7647 41.3698 12.0225 41.5679 12.2046C41.772 12.379 42.0488 12.4663 42.3972 12.4663C42.7037 12.4663 42.9377 12.398 43.1003 12.2615C43.2625 12.1249 43.3436 11.9315 43.3436 11.6812C43.3436 11.4992 43.2955 11.3475 43.1993 11.2261C43.1092 11.0971 42.9287 10.991 42.6585 10.9075L41.9196 10.6913C41.4566 10.5472 41.1114 10.3348 40.8832 10.0542C40.6606 9.76593 40.5494 9.41324 40.5494 8.99604C40.5494 8.47268 40.7026 8.06307 41.0091 7.76724C41.3217 7.46385 41.748 7.31213 42.2888 7.31213C42.8235 7.31213 43.2531 7.46385 43.5779 7.76724C43.9081 8.07065 44.0943 8.49543 44.1367 9.04157H43.2715C43.2352 8.76849 43.13 8.5599 42.956 8.41579C42.7877 8.26407 42.5562 8.18824 42.2619 8.18824C41.9856 8.18824 41.772 8.25268 41.6221 8.38165C41.4778 8.50301 41.4056 8.67368 41.4056 8.89365C41.4056 9.07568 41.4599 9.2274 41.5679 9.34877C41.682 9.47013 41.8682 9.57252 42.1266 9.65596L42.8839 9.8949C43.3224 10.0314 43.6529 10.2552 43.8751 10.5662C44.0976 10.8696 44.2088 11.2375 44.2088 11.6698C44.2088 12.1932 44.0462 12.6028 43.7218 12.8986C43.4035 13.1945 42.956 13.3424 42.3789 13.3424ZM45.0774 13.2286V5.03658H46.0147V13.2286H45.0774ZM48.3399 13.2286V9.49668C48.3399 9.09465 48.2588 8.79504 48.0966 8.59782C47.9405 8.4006 47.7061 8.30201 47.3935 8.30201C47.1233 8.30201 46.8828 8.37785 46.6725 8.52957C46.4684 8.68127 46.3061 8.88985 46.1859 9.15535C46.0718 9.42082 46.0147 9.7356 46.0147 10.0997L45.8978 8.7116C46.0478 8.27924 46.2793 7.9379 46.5914 7.6876C46.904 7.43729 47.2676 7.31213 47.6821 7.31213C48.1748 7.31213 48.5624 7.4866 48.8448 7.83551C49.1273 8.18443 49.2683 8.64715 49.2683 9.2236V13.2286H48.3399ZM52.5259 13.3424C52.0633 13.3424 51.655 13.2134 51.3004 12.9555C50.9519 12.6976 50.6785 12.3411 50.48 11.886C50.2819 11.4309 50.1829 10.9075 50.1829 10.3159C50.1829 9.71665 50.2786 9.19327 50.471 8.74574C50.6695 8.29063 50.9458 7.9379 51.3004 7.6876C51.655 7.43729 52.0605 7.31213 52.517 7.31213C52.9616 7.31213 53.3463 7.43349 53.6708 7.67624C54.0009 7.91138 54.2532 8.24132 54.4276 8.6661C54.6081 9.09088 54.6982 9.59527 54.6982 10.1793C54.6982 10.2703 54.695 10.3576 54.6892 10.441C54.6892 10.5169 54.6831 10.5965 54.6709 10.68H50.8138V9.79249H54.0131L53.7788 10.1452C53.7788 9.52324 53.6675 9.04913 53.4454 8.72299C53.2233 8.39682 52.9135 8.23374 52.517 8.23374C52.0902 8.23374 51.7507 8.4196 51.4985 8.79124C51.2523 9.15535 51.1292 9.66354 51.1292 10.3159C51.1292 10.9758 51.2523 11.4916 51.4985 11.8632C51.7507 12.2349 52.0992 12.4208 52.5439 12.4208C52.8145 12.4208 53.0488 12.3525 53.2469 12.216C53.4454 12.0718 53.5925 11.8632 53.6887 11.5902H54.5719C54.4219 12.1363 54.1663 12.5649 53.8057 12.8759C53.4511 13.1869 53.0248 13.3424 52.5259 13.3424ZM55.6568 13.2286V4.88867H56.5942V13.2286H55.6568ZM58.6401 13.2286L56.3778 10.2135L58.568 7.4259H59.7487L57.261 10.4752L57.3062 9.9404L59.8388 13.2286H58.6401ZM62.3636 13.2286V5.03658H63.3189V13.2286H62.3636ZM63.1209 8.97329L66.3381 5.03658H67.6452L64.3195 8.97329H63.1209ZM66.4824 13.2286L63.1025 8.97329H64.3195L67.8253 13.2286H66.4824ZM69.7832 13.3424C69.4767 13.3424 69.2061 13.2627 68.9718 13.1034C68.7374 12.9366 68.5544 12.709 68.422 12.4208C68.296 12.1325 68.2329 11.8026 68.2329 11.4309V7.4259H69.1703V11.1578C69.1703 11.5598 69.2481 11.8595 69.4046 12.0567C69.5607 12.2539 69.7832 12.3525 70.0714 12.3525C70.3298 12.3525 70.558 12.2767 70.7565 12.1249C70.9607 11.9732 71.12 11.7647 71.2341 11.4992C71.3544 11.2261 71.4143 10.9113 71.4143 10.5548L71.5317 11.9429C71.3813 12.3677 71.1498 12.709 70.8376 12.9669C70.5311 13.2172 70.1798 13.3424 69.7832 13.3424ZM71.4506 13.2286V11.8632H71.4143V7.4259H72.3427V13.2286H71.4506ZM73.6559 13.2286V7.4259H74.548V8.79124H74.5933V13.2286H73.6559ZM76.7562 13.2286V9.43979C76.7562 9.04538 76.684 8.75713 76.5398 8.57507C76.3955 8.39301 76.1884 8.30201 75.9178 8.30201C75.6655 8.30201 75.4373 8.37785 75.2331 8.52957C75.0346 8.67368 74.8786 8.87846 74.7644 9.14396C74.6503 9.40185 74.5933 9.70904 74.5933 10.0656L74.4759 8.7116C74.6263 8.27924 74.8517 7.9379 75.152 7.6876C75.4581 7.43729 75.8009 7.31213 76.1795 7.31213C76.6359 7.31213 76.9995 7.47901 77.2697 7.81277C77.5464 8.14652 77.6846 8.58646 77.6846 9.13257V13.2286H76.7562ZM79.8565 13.2286V9.43979C79.8565 9.04538 79.7815 8.75713 79.6311 8.57507C79.4868 8.39301 79.2798 8.30201 79.0092 8.30201C78.763 8.30201 78.5376 8.37785 78.3334 8.52957C78.135 8.67368 77.976 8.87846 77.8558 9.14396C77.7417 9.40185 77.6846 9.70904 77.6846 10.0656L77.4951 8.7116C77.6516 8.27924 77.8859 7.9379 78.1981 7.6876C78.5168 7.43729 78.8714 7.31213 79.2619 7.31213C79.7244 7.31213 80.0941 7.48279 80.3704 7.82413C80.6467 8.15788 80.7849 8.6054 80.7849 9.16671V13.2286H79.8565ZM84.8389 13.2286C84.8087 13.0845 84.788 12.9252 84.7757 12.7507C84.77 12.5762 84.7668 12.3639 84.7668 12.1136H84.7215V9.34877C84.7215 8.9771 84.6465 8.70024 84.4966 8.51818C84.3523 8.32857 84.1208 8.23374 83.8025 8.23374C83.496 8.23374 83.2494 8.30957 83.0632 8.46129C82.883 8.61302 82.7779 8.82918 82.7477 9.10982H81.8556C81.8975 8.56368 82.0932 8.12754 82.4416 7.80138C82.7897 7.47521 83.2555 7.31213 83.8383 7.31213C84.4391 7.31213 84.8899 7.49038 85.1902 7.8469C85.491 8.19582 85.641 8.7116 85.641 9.39427V12.1136C85.641 12.288 85.65 12.4663 85.6679 12.6483C85.6862 12.8303 85.7131 13.0238 85.749 13.2286H84.8389ZM83.2527 13.3424C82.784 13.3424 82.4115 13.1983 82.1352 12.91C81.8588 12.6142 81.7203 12.216 81.7203 11.7153C81.7203 11.1995 81.8645 10.7937 82.1531 10.4979C82.4473 10.1945 82.8684 9.98971 83.4149 9.88352L84.929 9.57632V10.4069L83.5592 10.68C83.2527 10.7407 83.0212 10.843 82.8651 10.9872C82.7151 11.1313 82.6397 11.3399 82.6397 11.6129C82.6397 11.8784 82.7086 12.0794 82.8472 12.216C82.991 12.3449 83.1985 12.4094 83.4691 12.4094C83.8294 12.4094 84.1269 12.2994 84.3612 12.0794C84.6013 11.8595 84.7215 11.5826 84.7215 11.2488L84.8389 12.0908C84.7305 12.4928 84.5381 12.8038 84.2622 13.0238C83.9859 13.2362 83.6492 13.3424 83.2527 13.3424ZM86.9109 13.2286V7.4259H87.8031V8.8709H87.8483V13.2286H86.9109ZM87.8483 10.2021L87.731 8.82538C87.8394 8.33235 88.0252 7.95688 88.2897 7.69899C88.5542 7.4411 88.8697 7.31213 89.2361 7.31213C89.3746 7.31213 89.4704 7.32732 89.5246 7.35765V8.47268C89.4945 8.45749 89.4525 8.4499 89.3983 8.4499C89.3445 8.44235 89.2781 8.43854 89.2002 8.43854C88.7494 8.43854 88.41 8.58646 88.1817 8.88227C87.9596 9.1781 87.8483 9.61802 87.8483 10.2021Z" fill="white"/>
</svg>
