<svg width="35" height="35" viewBox="0 0 35 35" fill="none" xmlns="http://www.w3.org/2000/svg">
<path d="M11.5916 26.9583C11.5706 26.9583 11.5478 26.9545 11.5249 26.9487C9.22871 26.2488 6.74187 23.7391 6.20217 21.5783C6.17164 21.4563 6.24601 21.3343 6.36615 21.3037C6.48821 21.2732 6.61027 21.3476 6.64081 21.4677C7.13855 23.4606 9.53006 25.8655 11.6564 26.5158C11.7766 26.5521 11.8433 26.6779 11.8071 26.7981C11.7785 26.8953 11.6889 26.9583 11.5916 26.9583Z" fill="#975500"/>
<path d="M12.6888 29.8064C12.6717 29.8064 12.6545 29.8045 12.6373 29.8007C10.7379 29.3583 8.52946 27.9394 6.58039 25.9064C4.7572 24.007 3.57671 21.9854 3.50043 20.6314C3.4928 20.5074 3.58815 20.3987 3.71402 20.393C3.83798 20.3854 3.94669 20.4807 3.95241 20.6066C4.02107 21.8386 5.18057 23.7953 6.90651 25.5937C8.79642 27.5656 10.9228 28.9368 12.7403 29.3602C12.8624 29.3888 12.9387 29.5109 12.9101 29.6329C12.8852 29.7359 12.7918 29.8064 12.6888 29.8064Z" fill="#975500"/>
<path d="M22.4259 9.99C22.3249 9.99 22.2333 9.92328 22.2066 9.82217C21.8881 8.6131 20.4406 6.87762 19.1228 6.53817C19.0027 6.50763 18.9283 6.38369 18.9607 6.26162C18.9932 6.13956 19.1152 6.06711 19.2372 6.09953C20.721 6.48287 22.2886 8.35371 22.6452 9.70777C22.6777 9.82791 22.6052 9.95185 22.4832 9.98427C22.4641 9.98812 22.445 9.99 22.4259 9.99Z" fill="#975500"/>
<path d="M25.2786 10.3918C25.1776 10.3918 25.086 10.3231 25.0593 10.222C24.2106 6.88079 21.0372 4.2738 19.2255 3.9496C19.1015 3.92671 19.0214 3.81038 19.0424 3.68642C19.0653 3.56245 19.1816 3.48235 19.3056 3.50333C21.2794 3.85805 24.5902 6.54514 25.4979 10.1095C25.5284 10.2316 25.456 10.3536 25.3339 10.3842C25.3148 10.3898 25.2977 10.3918 25.2786 10.3918Z" fill="#975500"/>
<path d="M19.6409 16.3291C20.0052 16.7315 20.3332 17.2598 20.194 17.399C20.0548 17.5382 19.6276 17.2865 19.3015 16.9584C18.9754 16.6323 18.1953 20.1033 18.1191 20.2787C18.0619 20.4103 17.1541 21.4515 16.6792 22.4413C16.5209 22.7713 16.5438 23.7668 16.4847 23.8259C16.2463 24.0643 15.9431 24.0395 15.2889 23.4616C14.6348 22.8838 14.2953 26.3261 15.0753 26.8696C16.4084 27.8003 19.0745 31.4982 22.5969 31.4982C26.6724 31.4982 30.4466 27.2472 30.4466 24.1272C30.4466 21.0072 29.5311 19.8248 29.5922 17.2102C29.6417 14.9961 31.2532 13.9395 31.2532 12.8334C31.2532 11.9027 29.8706 11.6758 29.4167 11.6758C28.6119 11.6758 26.5484 12.7075 26.5484 15.4232C26.5484 16.4798 26.2471 17.4352 25.1658 17.4352C24.0845 17.4352 22.8773 15.9515 22.1468 14.7939" fill="url(#paint0_linear_535_65)"/>
<path d="M31.2515 12.834C31.2515 12.3286 30.8415 12.0311 30.3952 11.8633C30.9311 13.6388 28.2135 13.7151 28.2135 19.7644C28.2135 25.8137 24.6911 27.574 23.2322 27.8772C21.7732 28.1785 19.2025 28.2663 17.2458 25.8652C16.6451 25.1271 15.8307 24.3262 14.9249 23.5691C14.5415 24.208 14.4595 26.4412 15.0755 26.8702C16.4086 27.8009 19.0747 31.4988 22.5971 31.4988C26.6726 31.4988 30.4467 27.2478 30.4467 24.1279C30.4467 21.0078 29.5313 19.8254 29.5924 17.2108C29.6419 14.9967 31.2515 13.9401 31.2515 12.834Z" fill="url(#paint1_linear_535_65)"/>
<path d="M15.2922 23.4611C14.6381 22.8832 13.0914 21.2355 12.0845 20.4288C11.0775 19.624 10.1983 19.6335 9.59381 20.5222C8.98927 21.4109 10.7514 22.9709 11.1538 23.3733C11.7698 23.9893 14.2986 26.3255 15.0786 26.8709" fill="url(#paint2_linear_535_65)"/>
<path d="M18.1206 20.2795C18.0443 20.455 17.5313 20.577 16.511 19.4671C15.731 18.6184 13.6427 16.1792 12.4107 15.0731C11.1787 13.967 10.2214 13.5131 9.41657 14.0929C8.61179 14.6726 9.0695 15.8779 9.96966 16.8849C11.0834 18.1302 12.365 19.4003 13.5912 20.6209C14.5505 21.5744 16.7227 23.5902 16.4843 23.8286" fill="url(#paint3_linear_535_65)"/>
<path d="M13.5927 20.6181C14.4986 21.5182 16.482 23.3624 16.5029 23.7686C16.789 23.3224 16.2665 21.995 15.7134 21.5297C12.5171 18.8388 9.42953 14.5001 9.03665 14.6298C8.86883 15.2611 9.29412 16.1269 9.96923 16.884C11.083 18.1274 12.3645 19.3995 13.5927 20.6181Z" fill="url(#paint4_linear_535_65)"/>
<path d="M22.1443 14.795C21.4139 13.6374 18.4197 9.91473 17.6912 8.85821C16.9608 7.80165 15.9805 7.80165 15.3016 8.28036C14.6227 8.75903 14.4205 9.71448 15.95 11.7455C16.915 13.0271 17.716 14.2057 19.6422 16.3302L21.8811 16.1738L22.1443 14.795Z" fill="url(#paint5_linear_535_65)"/>
<path d="M19.305 16.9588C18.9789 16.6327 16.0858 13.2037 15.4317 12.4676C14.2054 11.0906 12.6511 8.14036 10.7975 9.45435C9.82292 10.1447 10.3512 11.1459 10.6277 11.5484C10.9042 11.9508 14.501 16.1025 14.8538 16.4534C15.2067 16.8062 18.1989 20.1017 18.1245 20.2771" fill="url(#paint6_linear_535_65)"/>
<path d="M19.6403 16.3283C19.9912 16.7154 20.3058 17.217 20.2067 17.3791C21.3738 16.4408 18.9061 13.6832 17.5082 12.0278C16.4268 10.7462 16.1312 9.11566 15.3569 8.24219C15.3379 8.25365 15.3207 8.26699 15.3016 8.27841C14.6227 8.75712 14.4205 9.71258 15.95 11.7436C16.9131 13.0252 17.716 14.2057 19.6403 16.3283Z" fill="url(#paint7_linear_535_65)"/>
<path d="M14.8535 16.4549C15.2063 16.8077 18.1986 20.1031 18.1242 20.2786C19.0491 19.0333 15.4638 15.3735 13.7283 13.5237C12.2236 11.9198 11.9661 10.5161 10.4977 9.72852C9.95225 10.3884 10.3852 11.197 10.6274 11.5498C10.9039 11.9522 14.5026 16.1039 14.8535 16.4549Z" fill="url(#paint8_linear_535_65)"/>
<path d="M18.0525 20.3525C17.9477 20.4174 17.7322 20.4231 17.3984 20.2305C17.6464 20.4307 17.8752 20.507 18.0525 20.3525Z" fill="url(#paint9_linear_535_65)"/>
<path d="M29.6343 12.0534C30.4028 11.9161 30.5382 12.0038 30.4009 11.8627C30.0271 11.7235 29.6266 11.6758 29.4207 11.6758C28.6159 11.6758 26.5524 12.7075 26.5524 15.4232C26.5524 16.4798 26.2511 17.4352 25.1678 17.4352C24.7407 17.4352 24.2963 17.2045 23.8672 16.8535C25.7667 18.9571 27.2561 16.9756 27.483 15.6177C27.71 14.2599 27.38 12.4577 29.6343 12.0534Z" fill="url(#paint10_radial_535_65)"/>
<path d="M15.0765 8.48438C14.6073 9.01646 14.6226 9.97004 15.9557 11.7436C16.9207 13.0252 17.7216 14.2038 19.6478 16.3283C20.012 16.7307 20.3401 17.259 20.2009 17.3982C20.5232 15.1974 17.3898 13.0328 16.3714 11.3736C15.5647 10.0578 15.4045 9.28154 15.0765 8.48438Z" fill="url(#paint11_linear_535_65)"/>
<path d="M14.8492 16.4554C15.202 16.8082 18.1942 20.1036 18.1198 20.2791C18.7797 19.808 18.3296 19.0738 17.3093 18.0535C15.2172 15.9614 12.3051 13.1504 11.1341 10.8352C11.0235 10.6158 10.8176 10.4537 10.5754 10.4232C9.94409 10.3412 10.4133 11.2433 10.6249 11.5503C10.8996 11.9527 14.4983 16.1045 14.8492 16.4554Z" fill="url(#paint12_linear_535_65)"/>
<path d="M9.97039 16.8832C11.0841 18.1285 12.3657 19.3986 13.592 20.6192C14.5512 21.5727 16.7234 23.5885 16.485 23.8269C17.8314 22.6941 11.5781 18.5996 9.03594 14.6309C8.86999 15.2583 9.29529 16.1261 9.97039 16.8832Z" fill="url(#paint13_linear_535_65)"/>
<path d="M16.2123 24.0527C16.34 24.0032 16.4068 23.9441 16.4277 23.8792C16.197 24.0566 15.8938 23.9936 15.293 23.4616C14.6389 22.8837 13.0922 21.236 12.0853 20.4293C11.6428 20.0765 11.2252 19.88 10.8438 19.8457C11.3892 20.1871 11.1356 20.3091 12.3485 21.2398C13.0007 21.7395 15.3808 24.3789 16.2123 24.0527Z" fill="url(#paint14_linear_535_65)"/>
<path d="M14.6281 18.0157C15.511 19.0913 17.235 20.8668 18.0093 20.3767C17.7958 20.4492 17.3094 20.3309 16.5161 19.467C15.7361 18.6184 13.6478 16.1792 12.4158 15.0731C11.4184 14.1768 10.6003 13.7095 9.89844 13.8716C11.9409 14.5429 13.7908 16.9992 14.6281 18.0157Z" fill="url(#paint15_linear_535_65)"/>
<path d="M15.5839 13.3873C16.9932 14.9206 19.0853 17.9624 20.1456 17.4303C19.9721 17.4837 19.5983 17.253 19.3065 16.9593C18.9804 16.6332 16.0873 13.2042 15.4332 12.4681C14.5826 11.5145 13.5776 9.80575 12.4219 9.2832C13.5871 10.2024 14.4415 12.1458 15.5839 13.3873Z" fill="url(#paint16_linear_535_65)"/>
<path d="M23.8669 16.8549C23.8688 16.8549 23.8688 16.8549 23.8669 16.8549C23.2089 16.3171 22.591 15.4951 22.1486 14.7952C21.4201 13.6376 18.426 9.91496 17.6974 8.85844C17.4743 8.53614 17.2302 8.31301 16.9766 8.17188C17.316 8.66008 17.5086 9.35619 18.2772 10.2182C19.5092 11.6008 21.1206 14.0915 21.6737 14.9478C22.2249 15.8003 23.1174 17.6044 23.8669 16.8549Z" fill="url(#paint17_linear_535_65)"/>
<path d="M27.8995 29.1329C27.4418 28.0191 26.7725 27.3402 25.8056 27.9772C23.168 29.7146 20.1339 29.1272 16.3292 26.0529C12.9365 23.3086 11.1819 21.3481 9.5304 20.6387C9.13372 21.5407 10.7662 22.9882 11.1514 23.3734C11.7674 23.9894 14.2962 26.3256 15.0762 26.8711C16.4093 27.8017 19.0754 31.4996 22.5978 31.4996C24.5678 31.4977 26.4635 30.5079 27.8995 29.1329Z" fill="url(#paint18_linear_535_65)"/>
<path d="M29.5956 17.2105C29.6451 14.9964 31.2567 13.9399 31.2567 12.8337C31.2567 12.5076 31.0869 12.2693 30.8466 12.0957C31.1403 12.9577 30.4404 13.7225 29.3953 15.0231C28.2625 16.4324 28.0127 18.6199 28.7908 20.8092C29.5708 22.9986 28.5886 26.0175 27.0038 26.973C25.419 27.9284 23.3136 32.1297 17.2852 27.383C17.2834 27.3811 17.2834 27.3811 17.2814 27.3792C16.9134 27.0378 16.5491 26.7346 16.181 26.5057C13.6351 24.9285 12.1838 23.5097 11.0872 22.3178C10.8717 22.0832 10.2919 21.1849 9.60156 21.4805C9.94675 22.2624 10.8755 23.0959 11.1539 23.3743C11.7699 23.9903 14.2987 26.3264 15.0788 26.8719C15.1798 26.9424 15.2904 27.0302 15.4067 27.1313C15.4373 27.158 15.4678 27.1846 15.4983 27.2113C15.5059 27.219 15.5155 27.2266 15.5231 27.2323C15.5422 27.2495 15.5632 27.2686 15.5822 27.2857C15.586 27.2896 15.5918 27.2934 15.5956 27.2991C16.387 28.018 17.476 29.2081 18.8109 30.1368C18.8109 30.1368 18.8129 30.1369 18.8129 30.1387C18.9292 30.2208 19.0493 30.3009 19.1695 30.3771C19.1714 30.379 19.1733 30.379 19.1752 30.3809C19.2953 30.4572 19.4174 30.5316 19.5395 30.6022C19.5413 30.6022 19.5413 30.6041 19.5433 30.6041C20.4663 31.1343 21.4904 31.5004 22.5965 31.5004C26.672 31.5004 30.4461 27.2495 30.4461 24.1295C30.4461 21.0095 29.5365 19.8271 29.5956 17.2105Z" fill="url(#paint19_radial_535_65)"/>
<defs>
<linearGradient id="paint0_linear_535_65" x1="28.4653" y1="32.3052" x2="25.107" y2="24.4372" gradientUnits="userSpaceOnUse">
<stop offset="0.00132565" stop-color="#FFCB4B"/>
<stop offset="1" stop-color="#FFD748"/>
</linearGradient>
<linearGradient id="paint1_linear_535_65" x1="29.1338" y1="26.8336" x2="22.0901" y2="18.4314" gradientUnits="userSpaceOnUse">
<stop offset="0.00132565" stop-color="#FFCB4B"/>
<stop offset="1" stop-color="#FFD748"/>
</linearGradient>
<linearGradient id="paint2_linear_535_65" x1="10.3096" y1="21.2385" x2="14.4604" y2="24.295" gradientUnits="userSpaceOnUse">
<stop offset="0.00132565" stop-color="#FFCB4B"/>
<stop offset="1" stop-color="#FFD748"/>
</linearGradient>
<linearGradient id="paint3_linear_535_65" x1="8.79646" y1="13.15" x2="16.0792" y2="20.7723" gradientUnits="userSpaceOnUse">
<stop offset="0.00132565" stop-color="#FFCB4B"/>
<stop offset="1" stop-color="#FFD748"/>
</linearGradient>
<linearGradient id="paint4_linear_535_65" x1="14.3868" y1="17.6755" x2="11.9794" y2="19.9433" gradientUnits="userSpaceOnUse">
<stop stop-color="#FFBC47" stop-opacity="0"/>
<stop offset="1" stop-color="#FFA754"/>
</linearGradient>
<linearGradient id="paint5_linear_535_65" x1="16.6605" y1="9.55217" x2="20.8867" y2="16.1934" gradientUnits="userSpaceOnUse">
<stop offset="0.00132565" stop-color="#FFCB4B"/>
<stop offset="1" stop-color="#FFD748"/>
</linearGradient>
<linearGradient id="paint6_linear_535_65" x1="12.3021" y1="10.6566" x2="18.0377" y2="18.4047" gradientUnits="userSpaceOnUse">
<stop offset="0.00132565" stop-color="#FFCB4B"/>
<stop offset="1" stop-color="#FFD748"/>
</linearGradient>
<linearGradient id="paint7_linear_535_65" x1="19.1193" y1="11.5904" x2="15.4968" y2="14.8607" gradientUnits="userSpaceOnUse">
<stop stop-color="#FFBC47" stop-opacity="0"/>
<stop offset="1" stop-color="#FFA754"/>
</linearGradient>
<linearGradient id="paint8_linear_535_65" x1="15.7929" y1="13.921" x2="10.8119" y2="17.5623" gradientUnits="userSpaceOnUse">
<stop stop-color="#FFBC47" stop-opacity="0"/>
<stop offset="1" stop-color="#FFA754"/>
</linearGradient>
<linearGradient id="paint9_linear_535_65" x1="19.4985" y1="18.996" x2="14.5175" y2="22.6374" gradientUnits="userSpaceOnUse">
<stop stop-color="#FFBC47" stop-opacity="0"/>
<stop offset="1" stop-color="#FFA754"/>
</linearGradient>
<radialGradient id="paint10_radial_535_65" cx="0" cy="0" r="1" gradientUnits="userSpaceOnUse" gradientTransform="translate(26.0399 13.0849) scale(5.97979)">
<stop stop-color="#FFBC47" stop-opacity="0"/>
<stop offset="1" stop-color="#FFA754"/>
</radialGradient>
<linearGradient id="paint11_linear_535_65" x1="19.7897" y1="10.9481" x2="16.6955" y2="13.8159" gradientUnits="userSpaceOnUse">
<stop offset="0.3118" stop-color="#FFBC47" stop-opacity="0"/>
<stop offset="1" stop-color="#FF8900"/>
</linearGradient>
<linearGradient id="paint12_linear_535_65" x1="17.4142" y1="12.5037" x2="13.3389" y2="16.1765" gradientUnits="userSpaceOnUse">
<stop offset="0.3118" stop-color="#FFBC47" stop-opacity="0"/>
<stop offset="1" stop-color="#FF8900"/>
</linearGradient>
<linearGradient id="paint13_linear_535_65" x1="16.0384" y1="16.475" x2="11.0071" y2="20.7012" gradientUnits="userSpaceOnUse">
<stop offset="0.3118" stop-color="#FFBC47" stop-opacity="0"/>
<stop offset="1" stop-color="#FF8900"/>
</linearGradient>
<linearGradient id="paint14_linear_535_65" x1="10.5504" y1="19.5459" x2="16.3992" y2="24.3005" gradientUnits="userSpaceOnUse">
<stop stop-color="#FFBC47" stop-opacity="0"/>
<stop offset="1" stop-color="#FFBC47"/>
</linearGradient>
<linearGradient id="paint15_linear_535_65" x1="11.6704" y1="13.6534" x2="16.2363" y2="20.5965" gradientUnits="userSpaceOnUse">
<stop stop-color="#FFBC47" stop-opacity="0"/>
<stop offset="1" stop-color="#FFBC47"/>
</linearGradient>
<linearGradient id="paint16_linear_535_65" x1="15.2473" y1="14.1495" x2="16.5302" y2="13.1684" gradientUnits="userSpaceOnUse">
<stop stop-color="#FFBC47" stop-opacity="0"/>
<stop offset="1" stop-color="#FFA754"/>
</linearGradient>
<linearGradient id="paint17_linear_535_65" x1="21.5788" y1="18.0242" x2="19.8682" y2="9.87353" gradientUnits="userSpaceOnUse">
<stop stop-color="#FFBC47" stop-opacity="0"/>
<stop offset="1" stop-color="#FFBC47"/>
</linearGradient>
<linearGradient id="paint18_linear_535_65" x1="17.6711" y1="25.8468" x2="15.1051" y2="28.2052" gradientUnits="userSpaceOnUse">
<stop offset="0.3118" stop-color="#FFBC47" stop-opacity="0"/>
<stop offset="1" stop-color="#FF8900"/>
</linearGradient>
<radialGradient id="paint19_radial_535_65" cx="0" cy="0" r="1" gradientUnits="userSpaceOnUse" gradientTransform="translate(19.3731 18.0533) rotate(48.1401) scale(17.3328 15.7327)">
<stop offset="0.6134" stop-color="#FFBC47" stop-opacity="0"/>
<stop offset="1" stop-color="#FF8900"/>
</radialGradient>
</defs>
</svg>
